<svg xmlns="http://www.w3.org/2000/svg" xmlns:xlink="http://www.w3.org/1999/xlink" width="500" zoomAndPan="magnify" viewBox="0 0 375 374.999991" height="500" preserveAspectRatio="xMidYMid meet" version="1.0"><defs><clipPath id="id1"><path d="M 21.308594 0 L 353 0 L 353 346 L 21.308594 346 Z M 21.308594 0 " clip-rule="nonzero"/></clipPath></defs><path fill="#444c4d" d="M 213.308594 368.125 C 227.902344 368.804688 237.492188 369.90625 237.492188 371.265625 C 237.492188 373.300781 212.632812 375 182 375 C 151.371094 375 126.511719 373.300781 126.511719 371.265625 C 126.511719 369.992188 135.503906 368.886719 149.25 368.210938 C 111.578125 367.785156 84.425781 366.511719 84.425781 365.070312 C 84.425781 363.878906 103.855469 362.777344 132.621094 362.183594 C 124.476562 361.078125 119.640625 359.636719 119.640625 358.195312 C 119.640625 354.457031 149.84375 351.402344 187.175781 351.402344 C 224.425781 351.402344 254.714844 354.457031 254.714844 358.195312 C 254.714844 359.890625 248.777344 361.335938 239.019531 362.523438 C 259.722656 363.117188 272.871094 364.050781 272.871094 365.070312 C 272.871094 366.425781 248.265625 367.617188 213.480469 368.125 Z M 213.308594 368.125 " fill-opacity="1" fill-rule="evenodd"/><g clip-path="url(#id1)"><path fill="#000000" d="M 277.625 289.78125 C 293.492188 290.800781 302.824219 291.988281 302.824219 293.34375 C 302.824219 295.636719 276.265625 297.589844 236.984375 298.609375 C 258.957031 300.898438 273.128906 304.464844 273.128906 308.453125 C 273.128906 312.445312 259.296875 316.007812 237.746094 318.300781 C 270.667969 319.402344 294.085938 322.203125 294.085938 325.515625 C 294.085938 327.296875 286.957031 328.996094 275.078125 330.351562 C 320.640625 331.457031 352.796875 334.257812 352.796875 337.484375 C 352.796875 341.726562 297.476562 345.121094 229.347656 345.121094 C 161.128906 345.121094 105.894531 341.726562 105.894531 337.484375 C 105.894531 335.019531 124.390625 332.898438 153.152344 331.457031 C 134.148438 330.011719 122.097656 327.890625 122.097656 325.601562 C 122.097656 323.476562 132.113281 321.527344 148.234375 320.082031 C 114.71875 318.214844 91.128906 313.800781 91.128906 308.625 C 91.128906 304.71875 104.367188 301.238281 125.070312 298.949219 C 80.183594 298.015625 48.875 295.890625 48.875 293.515625 C 48.875 290.628906 92.316406 288.253906 150.183594 287.660156 C 123.625 282.3125 100.292969 279.847656 80.101562 280.105469 C 44.550781 250.054688 21.980469 205.15625 21.980469 154.992188 C 21.980469 83.265625 68.136719 22.238281 132.367188 0.167969 C 100.378906 27.417969 80.101562 67.988281 80.101562 113.230469 C 80.101562 195.140625 146.535156 261.601562 228.414062 261.601562 C 272.449219 261.601562 311.988281 242.417969 339.136719 211.945312 C 327.34375 243.859375 305.878906 271.023438 278.304688 290.035156 L 277.710938 290.035156 Z M 277.625 289.78125 " fill-opacity="1" fill-rule="evenodd"/></g></svg>