<svg xmlns="http://www.w3.org/2000/svg" xmlns:xlink="http://www.w3.org/1999/xlink" width="500" zoomAndPan="magnify" viewBox="0 0 375 374.999991" height="500" preserveAspectRatio="xMidYMid meet" version="1.0"><defs><clipPath id="id1"><path d="M 132.347656 266 L 192.691406 266 L 192.691406 367.382812 L 132.347656 367.382812 Z M 132.347656 266 " clip-rule="nonzero"/></clipPath><clipPath id="id2"><path d="M 145 7.382812 L 191 7.382812 L 191 108 L 145 108 Z M 145 7.382812 " clip-rule="nonzero"/></clipPath><clipPath id="id3"><path d="M 1.640625 159 L 102 159 L 102 210 L 1.640625 210 Z M 1.640625 159 " clip-rule="nonzero"/></clipPath><clipPath id="id4"><path d="M 270 163.390625 L 373.519531 163.390625 L 373.519531 216 L 270 216 Z M 270 163.390625 " clip-rule="nonzero"/></clipPath></defs><path fill="#e9c261" d="M 49.25 73.199219 C 49.460938 75.332031 49.792969 77.300781 50.257812 79.15625 C 52.179688 86.910156 56.695312 92.855469 62.640625 95.464844 C 64.414062 96.242188 66.429688 96.785156 68.378906 97.3125 C 72.179688 98.335938 76.109375 99.398438 78.847656 102.273438 C 82.480469 106.09375 82.671875 111.53125 82.859375 116.792969 C 82.902344 117.992188 82.945312 119.234375 83.03125 120.40625 C 83.664062 128.972656 87.265625 137.105469 93.171875 143.304688 C 94.863281 145.09375 96.726562 146.695312 98.71875 148.074219 C 100.648438 149.425781 102.683594 150.53125 104.777344 151.375 C 105.875 148.894531 107.082031 146.453125 108.378906 144.117188 C 112.058594 137.46875 116.617188 131.292969 121.925781 125.765625 C 122.660156 125.011719 123.355469 124.3125 124.027344 123.660156 C 121.285156 122.703125 118.902344 121.589844 116.777344 120.277344 C 113.519531 118.265625 110.90625 115.769531 109.003906 112.851562 C 106.484375 108.988281 105.167969 104.3125 103.894531 99.789062 C 101.925781 92.800781 100.070312 86.207031 94.125 83.167969 C 89.597656 80.859375 84.15625 81.429688 78.394531 82.035156 C 74.910156 82.402344 71.308594 82.78125 67.851562 82.484375 C 61.109375 81.914062 54.863281 78.789062 49.25 73.199219 Z M 105.386719 153.945312 C 105.257812 153.945312 105.128906 153.925781 105.003906 153.878906 C 102.371094 152.929688 99.820312 151.605469 97.421875 149.929688 C 95.308594 148.460938 93.324219 146.757812 91.53125 144.863281 C 85.265625 138.285156 81.445312 129.65625 80.773438 120.574219 C 80.6875 119.355469 80.640625 118.09375 80.597656 116.871094 C 80.425781 112.03125 80.25 107.03125 77.207031 103.832031 C 74.90625 101.414062 71.449219 100.480469 67.789062 99.492188 C 65.757812 98.945312 63.660156 98.378906 61.730469 97.535156 C 55.140625 94.640625 50.15625 88.140625 48.0625 79.703125 C 47.34375 76.816406 46.921875 73.691406 46.769531 70.144531 C 46.746094 69.664062 47.035156 69.222656 47.480469 69.046875 C 47.929688 68.867188 48.4375 68.992188 48.75 69.351562 C 54.519531 75.972656 61.007812 79.632812 68.046875 80.230469 C 71.289062 80.511719 74.777344 80.144531 78.160156 79.789062 C 83.992188 79.175781 90.027344 78.539062 95.152344 81.160156 C 101.980469 84.644531 104.058594 92.03125 106.070312 99.175781 C 107.300781 103.535156 108.570312 108.046875 110.898438 111.621094 C 112.644531 114.292969 114.953125 116.496094 117.96875 118.355469 C 120.382812 119.847656 123.175781 121.070312 126.507812 122.09375 C 126.894531 122.214844 127.1875 122.527344 127.277344 122.917969 C 127.371094 123.3125 127.242188 123.726562 126.945312 124.003906 C 125.875 124.996094 124.765625 126.085938 123.558594 127.332031 C 118.386719 132.714844 113.945312 138.730469 110.359375 145.210938 C 108.925781 147.796875 107.605469 150.503906 106.429688 153.257812 C 106.246094 153.6875 105.828125 153.945312 105.386719 153.945312 " fill-opacity="1" fill-rule="nonzero"/><path fill="#e9c261" d="M 118.214844 118.503906 C 120.417969 119.839844 122.9375 120.949219 125.890625 121.898438 C 133.03125 115.34375 141.109375 110.066406 149.925781 106.1875 C 149.601562 105.5625 149.289062 104.914062 149 104.25 C 145.21875 100.664062 142.789062 96.820312 141.585938 92.507812 C 140.34375 88.070312 140.492188 83.21875 140.636719 78.523438 C 140.855469 71.269531 141.066406 64.417969 136.296875 59.738281 C 132.671875 56.179688 127.304688 55.09375 121.621094 53.945312 C 118.191406 53.25 114.648438 52.535156 111.445312 51.222656 C 105.195312 48.664062 100.171875 43.820312 96.488281 36.800781 C 96.046875 38.90625 95.777344 40.882812 95.660156 42.78125 C 95.167969 50.753906 97.6875 57.773438 102.570312 62.042969 C 104.03125 63.316406 105.792969 64.4375 107.492188 65.523438 C 110.808594 67.636719 114.238281 69.828125 115.988281 73.394531 C 118.308594 78.121094 116.863281 83.367188 115.460938 88.441406 C 115.144531 89.597656 114.816406 90.796875 114.542969 91.941406 C 112.445312 100.875 113.78125 110.539062 118.214844 118.503906 Z M 126.175781 124.300781 C 126.066406 124.300781 125.953125 124.289062 125.84375 124.253906 C 122.324219 123.171875 119.359375 121.871094 116.777344 120.277344 C 116.613281 120.175781 116.480469 120.039062 116.386719 119.875 C 111.492188 111.242188 110.058594 101.140625 112.34375 91.429688 C 112.621094 90.238281 112.957031 89.019531 113.28125 87.839844 C 114.570312 83.175781 115.898438 78.347656 113.957031 74.390625 C 112.488281 71.390625 109.46875 69.464844 106.273438 67.429688 C 104.503906 66.300781 102.671875 65.128906 101.082031 63.746094 C 95.664062 59.011719 92.863281 51.316406 93.402344 42.644531 C 93.582031 39.699219 94.113281 36.59375 95.03125 33.152344 C 95.15625 32.6875 95.558594 32.351562 96.035156 32.3125 C 96.515625 32.273438 96.96875 32.546875 97.160156 32.984375 C 100.6875 41.027344 105.78125 46.464844 112.304688 49.132812 C 115.304688 50.363281 118.746094 51.058594 122.070312 51.730469 C 127.828125 52.894531 133.777344 54.097656 137.882812 58.128906 C 143.359375 63.496094 143.121094 71.171875 142.898438 78.59375 C 142.761719 83.117188 142.617188 87.796875 143.765625 91.902344 C 144.871094 95.867188 147.148438 99.417969 150.71875 102.761719 C 150.832031 102.867188 150.925781 103 150.988281 103.144531 C 151.441406 104.203125 151.949219 105.222656 152.496094 106.171875 C 152.65625 106.457031 152.691406 106.792969 152.585938 107.097656 C 152.484375 107.402344 152.253906 107.652344 151.957031 107.777344 C 142.738281 111.675781 134.320312 117.132812 126.949219 124 C 126.738281 124.195312 126.460938 124.300781 126.175781 124.300781 " fill-opacity="1" fill-rule="nonzero"/><path fill="#e9c261" d="M 192.328125 282.597656 C 193.671875 286.035156 194.246094 289.5 194.039062 292.890625 C 193.761719 297.488281 192.035156 302.023438 190.363281 306.414062 C 187.78125 313.203125 185.339844 319.613281 188.316406 325.59375 C 190.574219 330.136719 195.285156 332.90625 200.277344 335.84375 C 203.296875 337.617188 206.417969 339.457031 209.015625 341.746094 C 214.089844 346.207031 217.25 352.425781 218.441406 360.257812 C 219.535156 358.421875 220.4375 356.640625 221.171875 354.875 C 224.246094 347.5 224.160156 340.046875 220.941406 334.417969 C 219.980469 332.734375 218.683594 331.097656 217.425781 329.515625 C 214.984375 326.4375 212.460938 323.25 211.976562 319.3125 C 211.328125 314.089844 214.414062 309.601562 217.394531 305.261719 C 218.078125 304.269531 218.78125 303.242188 219.414062 302.25 C 223.613281 295.601562 225.628906 287.648438 225.105469 279.816406 C 222.183594 276.421875 217.972656 273.273438 212.269531 270.210938 C 205.601562 272.359375 198.683594 273.6875 191.671875 274.175781 C 192.257812 276.855469 192.476562 279.679688 192.328125 282.597656 Z M 217.683594 364.6875 C 217.589844 364.6875 217.492188 364.675781 217.398438 364.652344 C 216.933594 364.527344 216.59375 364.128906 216.554688 363.648438 C 215.851562 354.894531 212.808594 348.09375 207.523438 343.441406 C 205.082031 341.292969 202.058594 339.511719 199.128906 337.792969 C 194.074219 334.816406 188.84375 331.742188 186.289062 326.597656 C 182.875 319.734375 185.605469 312.554688 188.246094 305.613281 C 189.859375 301.378906 191.519531 297.007812 191.78125 292.753906 C 191.972656 289.617188 191.417969 286.40625 190.132812 283.199219 C 190.070312 283.046875 190.042969 282.878906 190.054688 282.714844 C 190.246094 279.460938 189.945312 276.335938 189.15625 273.425781 C 189.070312 273.097656 189.132812 272.746094 189.335938 272.46875 C 189.53125 272.191406 189.847656 272.023438 190.1875 272.003906 C 197.632812 271.601562 204.976562 270.226562 212.019531 267.914062 C 212.316406 267.820312 212.632812 267.847656 212.902344 267.992188 C 219.332031 271.390625 223.839844 274.777344 227.078125 278.644531 C 227.226562 278.824219 227.320312 279.046875 227.335938 279.28125 C 227.984375 287.710938 225.851562 296.296875 221.328125 303.453125 C 220.675781 304.488281 219.957031 305.527344 219.261719 306.539062 C 216.515625 310.535156 213.679688 314.660156 214.222656 319.035156 C 214.628906 322.347656 216.851562 325.148438 219.199219 328.113281 C 220.507812 329.761719 221.859375 331.464844 222.90625 333.292969 C 226.476562 339.535156 226.609375 347.71875 223.261719 355.742188 C 222.121094 358.488281 220.605469 361.25 218.625 364.1875 C 218.410156 364.507812 218.054688 364.6875 217.683594 364.6875 " fill-opacity="1" fill-rule="nonzero"/><path fill="#e9c261" d="M 280.910156 130.863281 L 280.921875 130.863281 Z M 261.515625 142.625 C 263.527344 146.09375 265.3125 149.730469 266.828125 153.441406 C 268.832031 158.335938 270.390625 163.4375 271.460938 168.609375 C 272.058594 171.46875 272.515625 174.394531 272.820312 177.332031 C 276.773438 172.339844 281.863281 166.847656 288.082031 163.714844 C 290.972656 162.246094 293.984375 161.386719 297.035156 161.148438 C 301.628906 160.792969 306.371094 161.875 310.957031 162.921875 C 318.046875 164.539062 324.738281 166.070312 330.253906 162.300781 C 334.453125 159.441406 336.554688 154.390625 338.78125 149.042969 C 340.125 145.820312 341.515625 142.480469 343.425781 139.597656 C 347.152344 133.964844 352.882812 129.980469 360.480469 127.726562 C 358.507812 126.894531 356.621094 126.246094 354.769531 125.765625 C 347.035156 123.738281 339.648438 124.851562 334.503906 128.8125 C 332.972656 129.996094 331.53125 131.503906 330.136719 132.960938 C 327.414062 135.800781 324.601562 138.742188 320.761719 139.769531 C 315.664062 141.125 310.789062 138.691406 306.066406 136.335938 C 304.996094 135.800781 303.882812 135.25 302.8125 134.761719 C 296 131.683594 288.492188 130.71875 281.101562 131.976562 C 281.101562 131.976562 281.101562 131.980469 281.101562 131.980469 C 277.566406 132.574219 274.160156 133.683594 270.980469 135.273438 C 267.214844 137.148438 263.960938 139.683594 261.515625 142.625 Z M 271.941406 181.445312 C 271.835938 181.445312 271.726562 181.433594 271.621094 181.398438 C 271.171875 181.269531 270.847656 180.867188 270.8125 180.398438 C 270.546875 176.585938 270.019531 172.777344 269.242188 169.066406 C 268.203125 164.03125 266.6875 159.0625 264.734375 154.296875 C 263.160156 150.441406 261.289062 146.675781 259.171875 143.101562 C 258.9375 142.699219 258.964844 142.195312 259.25 141.832031 C 261.949219 138.371094 265.65625 135.40625 269.964844 133.25 C 273.347656 131.5625 276.964844 130.386719 280.722656 129.75 C 288.558594 128.414062 296.515625 129.4375 303.746094 132.707031 C 304.855469 133.207031 305.988281 133.773438 307.082031 134.316406 C 311.421875 136.480469 315.917969 138.722656 320.179688 137.585938 C 323.40625 136.722656 325.878906 134.136719 328.5 131.398438 C 329.953125 129.882812 331.453125 128.3125 333.121094 127.023438 C 338.824219 122.632812 346.925781 121.375 355.34375 123.578125 C 358.21875 124.328125 361.167969 125.453125 364.355469 127.011719 C 364.785156 127.222656 365.039062 127.679688 364.980469 128.15625 C 364.925781 128.632812 364.570312 129.027344 364.101562 129.128906 C 355.523438 131.023438 349.203125 134.964844 345.308594 140.84375 C 343.519531 143.546875 342.175781 146.785156 340.871094 149.910156 C 338.617188 155.328125 336.285156 160.929688 331.53125 164.164062 C 325.195312 168.492188 317.699219 166.777344 310.453125 165.125 C 306.035156 164.117188 301.464844 163.074219 297.210938 163.402344 C 294.457031 163.617188 291.730469 164.398438 289.101562 165.730469 C 282.324219 169.148438 276.855469 175.683594 272.847656 180.996094 C 272.628906 181.285156 272.292969 181.445312 271.941406 181.445312 " fill-opacity="1" fill-rule="nonzero"/><path fill="#e9c261" d="M 277.152344 231.421875 C 280.933594 232.070312 284.296875 233.421875 287.152344 235.429688 C 290.921875 238.082031 293.882812 241.929688 296.746094 245.652344 C 301.175781 251.410156 305.359375 256.851562 312.019531 257.460938 C 317.082031 257.925781 321.917969 255.375 327.042969 252.667969 C 330.140625 251.039062 333.339844 249.351562 336.652344 248.34375 C 343.121094 246.375 350.082031 246.953125 357.386719 250.0625 C 356.390625 248.15625 355.347656 246.453125 354.230469 244.902344 C 349.554688 238.421875 343.152344 234.582031 336.664062 234.359375 C 334.71875 234.296875 332.65625 234.539062 330.648438 234.773438 C 326.738281 235.234375 322.691406 235.710938 319.078125 234.054688 C 314.289062 231.855469 312.082031 226.878906 309.949219 222.0625 C 309.460938 220.964844 308.957031 219.828125 308.4375 218.773438 C 304.445312 210.617188 297.648438 204.214844 289.296875 200.75 C 287.425781 199.972656 285.503906 199.355469 283.585938 198.910156 C 279.828125 198.039062 276.019531 197.863281 272.519531 198.398438 C 272.121094 201.367188 271.566406 204.3125 270.871094 207.175781 C 269.203125 214.128906 266.675781 220.855469 263.363281 227.175781 C 262.519531 228.808594 261.609375 230.421875 260.652344 232.007812 C 267.199219 230.796875 272.492188 230.613281 277.152344 231.421875 Z M 313.210938 259.773438 C 312.746094 259.773438 312.28125 259.753906 311.8125 259.710938 C 304.167969 259.011719 299.480469 252.917969 294.953125 247.03125 C 292.191406 243.441406 289.339844 239.734375 285.851562 237.28125 C 283.269531 235.464844 280.214844 234.242188 276.769531 233.652344 C 276.765625 233.652344 276.765625 233.648438 276.765625 233.648438 C 271.800781 232.789062 266.007812 233.128906 258.535156 234.734375 C 258.089844 234.832031 257.625 234.644531 257.367188 234.269531 C 257.105469 233.890625 257.101562 233.398438 257.347656 233.011719 C 258.792969 230.792969 260.140625 228.476562 261.359375 226.132812 C 264.585938 219.972656 267.046875 213.417969 268.671875 206.648438 C 269.414062 203.597656 269.988281 200.449219 270.382812 197.285156 C 270.441406 196.796875 270.8125 196.40625 271.296875 196.316406 C 275.320312 195.5625 279.746094 195.699219 284.09375 196.710938 C 286.140625 197.179688 288.179688 197.839844 290.167969 198.664062 C 299.023438 202.339844 306.238281 209.128906 310.472656 217.777344 C 311.007812 218.875 311.519531 220.03125 312.015625 221.148438 C 313.980469 225.578125 316.007812 230.160156 320.023438 232 C 323.058594 233.390625 326.617188 232.972656 330.382812 232.53125 C 332.472656 232.285156 334.632812 232.027344 336.742188 232.101562 C 343.9375 232.34375 350.980469 236.527344 356.066406 243.582031 C 357.800781 245.988281 359.363281 248.734375 360.828125 251.972656 C 361.03125 252.410156 360.929688 252.925781 360.582031 253.257812 C 360.230469 253.585938 359.714844 253.664062 359.285156 253.441406 C 351.449219 249.441406 344.054688 248.457031 337.3125 250.507812 C 334.207031 251.449219 331.101562 253.085938 328.101562 254.667969 C 323.335938 257.183594 318.417969 259.773438 313.210938 259.773438 " fill-opacity="1" fill-rule="nonzero"/><path fill="#e9c261" d="M 14.5625 248.730469 C 16.589844 249.410156 18.523438 249.921875 20.410156 250.265625 C 28.285156 251.703125 35.566406 250.042969 40.390625 245.714844 C 41.832031 244.417969 43.160156 242.808594 44.445312 241.25 C 46.941406 238.21875 49.53125 235.078125 53.28125 233.769531 C 58.265625 232.039062 63.3125 234.101562 68.1875 236.097656 C 69.296875 236.550781 70.449219 237.023438 71.550781 237.425781 C 81.984375 241.238281 93.835938 240.167969 103.261719 234.558594 C 103.894531 234.179688 104.515625 233.78125 105.113281 233.367188 C 105.960938 231.585938 106.753906 229.660156 107.539062 227.503906 C 104.164062 221.117188 101.601562 214.355469 99.914062 207.378906 C 97.949219 208.058594 95.898438 208.550781 93.804688 208.855469 C 89.820312 209.441406 85.773438 209.390625 81.769531 208.710938 C 79.695312 209.691406 77.542969 210.351562 75.351562 210.683594 C 70.796875 211.382812 65.984375 210.65625 61.339844 209.953125 C 54.148438 208.867188 47.359375 207.839844 42.140625 212.003906 C 38.171875 215.171875 36.453125 220.355469 34.632812 225.847656 C 33.53125 229.167969 32.390625 232.601562 30.699219 235.621094 C 27.398438 241.519531 21.980469 245.917969 14.5625 248.730469 Z M 25.855469 253.03125 C 23.953125 253.03125 21.996094 252.851562 20.003906 252.488281 C 17.0625 251.949219 14.039062 251.046875 10.753906 249.730469 C 10.308594 249.550781 10.027344 249.109375 10.046875 248.628906 C 10.070312 248.148438 10.390625 247.738281 10.851562 247.597656 C 19.269531 245.070312 25.285156 240.667969 28.722656 234.515625 C 30.3125 231.6875 31.417969 228.359375 32.484375 225.136719 C 34.328125 219.578125 36.234375 213.824219 40.726562 210.238281 C 46.722656 205.457031 54.324219 206.605469 61.679688 207.71875 C 66.160156 208.394531 70.792969 209.09375 75.011719 208.449219 C 77.09375 208.136719 79.140625 207.484375 81.101562 206.519531 C 81.320312 206.414062 81.566406 206.382812 81.804688 206.421875 C 85.6875 207.117188 89.613281 207.1875 93.476562 206.621094 C 95.839844 206.277344 98.136719 205.671875 100.3125 204.824219 C 100.621094 204.707031 100.964844 204.722656 101.257812 204.878906 C 101.550781 205.035156 101.753906 205.308594 101.828125 205.628906 C 103.5 213.019531 106.171875 220.164062 109.769531 226.878906 C 109.921875 227.164062 109.945312 227.492188 109.839844 227.792969 C 108.9375 230.328125 108.015625 232.558594 107.027344 234.617188 C 106.941406 234.789062 106.8125 234.941406 106.65625 235.050781 C 105.941406 235.550781 105.1875 236.039062 104.421875 236.496094 C 94.417969 242.457031 81.839844 243.597656 70.773438 239.546875 C 69.628906 239.128906 68.460938 238.652344 67.328125 238.1875 C 62.84375 236.351562 58.203125 234.453125 54.027344 235.902344 C 50.875 237.003906 48.597656 239.765625 46.191406 242.6875 C 44.855469 244.308594 43.472656 245.988281 41.902344 247.394531 C 37.796875 251.078125 32.136719 253.03125 25.855469 253.03125 " fill-opacity="1" fill-rule="nonzero"/><path fill="#e9c261" d="M 213.644531 103.40625 C 216.148438 104.253906 218.667969 105.234375 221.144531 106.335938 C 228.953125 109.8125 236.203125 114.40625 242.703125 119.988281 C 243.117188 120.347656 243.53125 120.707031 243.933594 121.070312 C 244.148438 118.703125 244.519531 116.5 245.035156 114.484375 C 246.273438 109.652344 248.359375 105.800781 251.40625 102.703125 C 254.636719 99.417969 258.925781 97.121094 263.066406 94.902344 C 269.472656 91.476562 275.523438 88.234375 277.207031 81.78125 C 278.488281 76.867188 276.75 71.6875 274.914062 66.199219 C 273.800781 62.882812 272.652344 59.453125 272.191406 56.023438 C 271.304688 49.332031 273 42.570312 277.242188 35.882812 C 275.1875 36.558594 273.335938 37.308594 271.640625 38.148438 C 264.476562 41.707031 259.644531 47.390625 258.382812 53.742188 C 258.003906 55.644531 257.90625 57.726562 257.8125 59.742188 C 257.628906 63.667969 257.445312 67.730469 255.222656 71.023438 C 252.28125 75.382812 247.011719 76.746094 241.914062 78.070312 C 240.742188 78.371094 239.535156 78.6875 238.402344 79.027344 C 230.953125 81.257812 224.246094 85.875 219.515625 92.035156 C 217.570312 94.566406 215.960938 97.347656 214.738281 100.296875 C 214.320312 101.328125 213.949219 102.367188 213.644531 103.40625 Z M 244.902344 124.621094 C 244.617188 124.621094 244.339844 124.511719 244.125 124.3125 C 243.203125 123.445312 242.230469 122.5625 241.226562 121.703125 C 234.894531 116.261719 227.828125 111.789062 220.226562 108.402344 C 217.484375 107.183594 214.6875 106.113281 211.921875 105.21875 C 211.351562 105.039062 211.023438 104.441406 211.171875 103.863281 C 211.550781 102.390625 212.046875 100.902344 212.648438 99.4375 C 213.945312 96.300781 215.652344 93.347656 217.722656 90.65625 C 222.738281 84.128906 229.851562 79.230469 237.75 76.863281 C 238.921875 76.507812 240.15625 76.1875 241.34375 75.878906 C 246.03125 74.667969 250.882812 73.410156 253.347656 69.757812 C 255.214844 66.992188 255.378906 63.421875 255.554688 59.640625 C 255.652344 57.539062 255.75 55.371094 256.164062 53.300781 C 257.558594 46.261719 262.835938 40 270.632812 36.128906 C 273.257812 34.824219 276.222656 33.734375 279.6875 32.792969 C 280.15625 32.667969 280.648438 32.851562 280.921875 33.25 C 281.191406 33.644531 281.179688 34.167969 280.894531 34.554688 C 275.679688 41.621094 273.503906 48.742188 274.4375 55.722656 C 274.867188 58.941406 275.980469 62.269531 277.058594 65.480469 C 278.921875 71.039062 280.84375 76.785156 279.398438 82.351562 C 277.464844 89.761719 270.691406 93.386719 264.136719 96.894531 C 260.140625 99.035156 256.011719 101.246094 253.015625 104.289062 C 250.257812 107.089844 248.363281 110.609375 247.226562 115.046875 C 246.582031 117.566406 246.179688 120.425781 246.03125 123.542969 C 246.007812 123.984375 245.730469 124.375 245.324219 124.539062 C 245.1875 124.589844 245.042969 124.621094 244.902344 124.621094 " fill-opacity="1" fill-rule="nonzero"/><path fill="#e9c261" d="M 125.824219 268.863281 C 124.699219 270.675781 123.347656 272.316406 121.804688 273.730469 C 118.402344 276.84375 114 278.90625 109.746094 280.902344 C 103.167969 283.988281 96.953125 286.910156 94.929688 293.269531 C 93.394531 298.101562 94.855469 303.367188 96.398438 308.941406 C 97.332031 312.3125 98.296875 315.796875 98.574219 319.25 C 99.113281 325.984375 97.0625 332.648438 92.46875 339.101562 C 94.542969 338.542969 96.425781 337.890625 98.179688 337.136719 C 105.519531 333.964844 110.648438 328.535156 112.246094 322.253906 C 112.726562 320.378906 112.929688 318.304688 113.128906 316.296875 C 113.519531 312.382812 113.917969 308.335938 116.3125 305.167969 C 119.488281 300.964844 124.828125 299.875 129.996094 298.824219 C 131.171875 298.585938 132.390625 298.339844 133.535156 298.0625 C 141.753906 296.0625 149.105469 291.289062 154.265625 284.609375 C 155.046875 280.003906 154.542969 274.613281 152.722656 268.15625 C 146.121094 265.523438 139.847656 262.082031 134.054688 257.914062 C 132.617188 261.074219 130.535156 264.121094 127.964844 266.796875 C 127.242188 267.550781 126.539062 268.230469 125.824219 268.863281 Z M 89.625 342.074219 C 89.238281 342.074219 88.871094 341.871094 88.660156 341.527344 C 88.414062 341.121094 88.449219 340.59375 88.753906 340.226562 C 94.339844 333.449219 96.882812 326.453125 96.316406 319.429688 C 96.058594 316.191406 95.121094 312.8125 94.21875 309.542969 C 92.652344 303.894531 91.035156 298.058594 92.773438 292.585938 C 95.09375 285.28125 102.050781 282.015625 108.78125 278.859375 C 112.882812 276.933594 117.128906 274.945312 120.273438 272.0625 C 121.703125 270.757812 122.949219 269.234375 123.976562 267.542969 C 124.039062 267.445312 124.113281 267.359375 124.199219 267.28125 C 124.910156 266.65625 125.609375 265.984375 126.332031 265.230469 C 129.058594 262.394531 131.199219 259.113281 132.515625 255.75 C 132.644531 255.421875 132.917969 255.171875 133.257812 255.074219 C 133.597656 254.980469 133.960938 255.042969 134.246094 255.253906 C 140.351562 259.796875 147.019531 263.496094 154.070312 266.257812 C 154.394531 266.382812 154.648438 266.65625 154.742188 266.992188 C 156.824219 274.15625 157.382812 280.136719 156.445312 285.28125 C 156.410156 285.453125 156.339844 285.621094 156.230469 285.761719 C 150.753906 292.96875 142.882812 298.113281 134.070312 300.257812 C 132.882812 300.542969 131.644531 300.796875 130.445312 301.042969 C 125.695312 302.007812 120.777344 303.007812 118.117188 306.53125 C 116.109375 309.191406 115.753906 312.75 115.382812 316.519531 C 115.175781 318.609375 114.960938 320.769531 114.441406 322.8125 C 112.667969 329.777344 107.066406 335.753906 99.078125 339.210938 C 96.359375 340.382812 93.34375 341.3125 89.863281 342.050781 C 89.785156 342.0625 89.707031 342.074219 89.625 342.074219 " fill-opacity="1" fill-rule="nonzero"/><path fill="#e9c261" d="M 227.078125 278.644531 C 229.335938 281.339844 230.9375 284.28125 231.84375 287.386719 C 233.128906 291.804688 233.039062 296.65625 232.949219 301.351562 C 232.8125 308.609375 232.679688 315.464844 237.5 320.09375 C 241.167969 323.609375 246.546875 324.632812 252.234375 325.714844 C 255.675781 326.367188 259.230469 327.046875 262.449219 328.320312 C 268.730469 330.816406 273.808594 335.597656 277.582031 342.574219 C 277.996094 340.464844 278.242188 338.484375 278.332031 336.585938 C 278.730469 328.609375 276.128906 321.613281 271.199219 317.402344 C 269.726562 316.144531 267.957031 315.046875 266.242188 313.980469 C 262.898438 311.902344 259.441406 309.75 257.648438 306.207031 C 255.277344 301.5 256.664062 296.234375 258.003906 291.144531 C 258.3125 289.984375 258.625 288.785156 258.882812 287.636719 C 260.828125 278.953125 259.597656 269.863281 255.414062 262.03125 C 255.394531 261.996094 255.375 261.964844 255.351562 261.929688 C 254.34375 260.046875 253.171875 258.261719 251.871094 256.628906 C 250.03125 254.300781 247.863281 252.238281 245.5625 250.613281 C 242.492188 253.496094 239.195312 256.167969 235.757812 258.5625 C 231.613281 261.472656 227.175781 264.03125 222.574219 266.171875 C 220.148438 267.308594 217.664062 268.335938 215.164062 269.234375 C 220.410156 272.222656 224.230469 275.246094 227.078125 278.644531 Z M 277.984375 347.058594 C 277.542969 347.058594 277.140625 346.800781 276.953125 346.394531 C 273.328125 338.394531 268.164062 333.019531 261.613281 330.421875 C 258.59375 329.226562 255.148438 328.570312 251.8125 327.933594 C 246.046875 326.835938 240.085938 325.703125 235.933594 321.722656 C 230.398438 316.410156 230.546875 308.734375 230.6875 301.308594 C 230.773438 296.785156 230.859375 292.105469 229.671875 288.015625 C 228.84375 285.171875 227.425781 282.582031 225.339844 280.09375 C 222.339844 276.507812 217.921875 273.203125 211.84375 269.984375 C 211.441406 269.773438 211.207031 269.339844 211.25 268.890625 C 211.285156 268.4375 211.59375 268.050781 212.027344 267.914062 C 215.253906 266.871094 218.480469 265.59375 221.617188 264.125 C 226.097656 262.042969 230.417969 259.546875 234.457031 256.710938 C 238.054688 254.203125 241.488281 251.394531 244.660156 248.355469 C 245.042969 247.988281 245.625 247.9375 246.066406 248.226562 C 248.839844 250.042969 251.464844 252.464844 253.648438 255.226562 C 255.003906 256.933594 256.230469 258.792969 257.292969 260.757812 C 257.316406 260.789062 257.335938 260.824219 257.355469 260.859375 C 261.835938 269.195312 263.160156 278.878906 261.089844 288.125 C 260.824219 289.316406 260.503906 290.535156 260.195312 291.714844 C 258.960938 296.402344 257.683594 301.246094 259.667969 305.1875 C 261.175781 308.167969 264.214844 310.0625 267.4375 312.0625 C 269.222656 313.171875 271.066406 314.320312 272.671875 315.683594 C 278.140625 320.355469 281.027344 328.011719 280.59375 336.695312 C 280.453125 339.644531 279.957031 342.753906 279.082031 346.207031 C 278.964844 346.671875 278.5625 347.011719 278.085938 347.054688 C 278.050781 347.058594 278.019531 347.058594 277.984375 347.058594 " fill-opacity="1" fill-rule="nonzero"/><g clip-path="url(#id1)"><path fill="#e9c261" d="M 156.445312 285.28125 C 155.992188 287.777344 155.183594 290.109375 154.039062 292.21875 C 151.851562 296.269531 148.375 299.664062 145.011719 302.945312 C 139.8125 308.019531 134.90625 312.808594 135.085938 319.484375 C 135.226562 324.554688 138.339844 329.054688 141.636719 333.820312 C 143.625 336.695312 145.6875 339.667969 147.078125 342.832031 C 149.804688 349.011719 150.058594 355.980469 147.839844 363.585938 C 149.613281 362.375 151.179688 361.144531 152.589844 359.847656 C 158.484375 354.441406 161.542969 347.636719 160.984375 341.183594 C 160.816406 339.253906 160.332031 337.226562 159.855469 335.265625 C 158.9375 331.445312 157.984375 327.488281 159.203125 323.707031 C 160.816406 318.691406 165.511719 315.910156 170.046875 313.222656 C 171.078125 312.613281 172.144531 311.980469 173.128906 311.347656 C 182.460938 305.324219 188.734375 295.234375 189.921875 284.339844 C 189.984375 283.800781 190.027344 283.265625 190.054688 282.722656 C 190.226562 279.789062 190 276.96875 189.382812 274.3125 C 188.136719 274.375 186.851562 274.40625 185.542969 274.40625 L 185.367188 274.40625 C 177.316406 274.40625 169.34375 273.320312 161.671875 271.175781 C 159.566406 270.59375 157.441406 269.914062 155.332031 269.148438 C 156.921875 275.367188 157.285156 280.660156 156.445312 285.28125 Z M 145.765625 367.382812 C 145.507812 367.382812 145.253906 367.296875 145.046875 367.125 C 144.675781 366.820312 144.535156 366.3125 144.703125 365.863281 C 147.75 357.628906 147.851562 350.1875 145.007812 343.742188 C 143.699219 340.773438 141.707031 337.894531 139.777344 335.105469 C 136.4375 330.277344 132.984375 325.289062 132.820312 319.542969 C 132.613281 311.886719 138.113281 306.519531 143.429688 301.332031 C 146.671875 298.167969 150.023438 294.894531 152.050781 291.144531 C 153.078125 289.246094 153.808594 287.136719 154.214844 284.878906 L 154.214844 284.875 C 155.089844 280.085938 154.550781 274.441406 152.570312 267.625 C 152.449219 267.210938 152.574219 266.765625 152.894531 266.472656 C 153.210938 266.183594 153.667969 266.097656 154.070312 266.257812 C 156.789062 267.324219 159.550781 268.246094 162.277344 269 C 169.753906 271.085938 177.519531 272.144531 185.367188 272.144531 L 185.542969 272.144531 C 187.140625 272.144531 188.699219 272.097656 190.175781 272.003906 C 190.730469 271.96875 191.203125 272.320312 191.34375 272.835938 C 192.191406 275.984375 192.519531 279.351562 192.3125 282.847656 C 192.285156 283.425781 192.238281 284.003906 192.175781 284.582031 C 190.914062 296.144531 184.253906 306.863281 174.359375 313.246094 C 173.335938 313.902344 172.25 314.546875 171.203125 315.167969 C 167.027344 317.640625 162.707031 320.199219 161.355469 324.398438 C 160.332031 327.578125 161.171875 331.054688 162.058594 334.738281 C 162.550781 336.777344 163.058594 338.890625 163.238281 340.988281 C 163.859375 348.144531 160.535156 355.625 154.121094 361.511719 C 151.9375 363.519531 149.394531 365.390625 146.351562 367.222656 C 146.167969 367.332031 145.96875 367.382812 145.765625 367.382812 " fill-opacity="1" fill-rule="nonzero"/></g><path fill="#e9c261" d="M 246.054688 123.027344 C 251.550781 128.261719 256.332031 134.15625 260.292969 140.578125 C 262.871094 137.65625 266.183594 135.140625 269.964844 133.25 C 273.289062 131.589844 276.839844 130.425781 280.527344 129.785156 C 280.691406 129.695312 280.863281 129.609375 281.03125 129.523438 C 285.164062 127.46875 289.964844 126.699219 294.605469 125.949219 C 301.78125 124.796875 308.5625 123.707031 312.265625 118.148438 C 315.070312 113.921875 315.125 108.457031 315.179688 102.675781 C 315.214844 99.175781 315.25 95.558594 315.933594 92.160156 C 317.273438 85.539062 321.089844 79.695312 327.289062 74.765625 C 325.144531 74.730469 323.148438 74.84375 321.246094 75.089844 C 313.320312 76.117188 306.894531 79.914062 303.621094 85.515625 C 302.644531 87.183594 301.875 89.117188 301.132812 90.988281 C 299.675781 94.644531 298.171875 98.421875 294.992188 100.816406 C 290.78125 103.980469 285.34375 103.554688 280.085938 103.140625 C 278.890625 103.046875 277.652344 102.949219 276.476562 102.902344 C 265.355469 102.453125 254.417969 107.085938 247.167969 115.300781 C 247.164062 115.304688 247.164062 115.308594 247.160156 115.3125 C 246.589844 117.625 246.21875 120.21875 246.054688 123.027344 Z M 260.144531 143.65625 C 260.121094 143.65625 260.097656 143.65625 260.074219 143.652344 C 259.699219 143.628906 259.359375 143.421875 259.171875 143.101562 C 255.074219 136.175781 250.015625 129.855469 244.125 124.3125 C 243.886719 124.085938 243.753906 123.765625 243.769531 123.4375 C 243.925781 120.164062 244.351562 117.15625 245.035156 114.484375 C 245.085938 114.289062 245.1875 114.109375 245.332031 113.96875 C 245.355469 113.941406 245.378906 113.914062 245.402344 113.886719 L 245.472656 113.804688 C 253.167969 105.085938 264.792969 100.167969 276.570312 100.640625 C 277.789062 100.691406 279.046875 100.792969 280.261719 100.886719 C 285.101562 101.269531 290.101562 101.664062 293.628906 99.007812 C 296.300781 97 297.625 93.675781 299.027344 90.15625 C 299.800781 88.207031 300.605469 86.195312 301.667969 84.375 C 305.296875 78.167969 312.328125 73.964844 320.960938 72.847656 C 323.914062 72.464844 327.074219 72.402344 330.617188 72.644531 C 331.097656 72.679688 331.503906 73.011719 331.632812 73.476562 C 331.757812 73.9375 331.574219 74.433594 331.179688 74.703125 C 323.933594 79.671875 319.550781 85.695312 318.152344 92.609375 C 317.507812 95.796875 317.472656 99.300781 317.445312 102.695312 C 317.386719 108.554688 317.328125 114.613281 314.148438 119.398438 C 309.902344 125.78125 302.308594 127 294.964844 128.183594 C 290.492188 128.902344 285.863281 129.644531 282.042969 131.542969 C 281.859375 131.636719 281.667969 131.730469 281.488281 131.835938 C 281.367188 131.90625 281.238281 131.957031 281.101562 131.980469 C 277.566406 132.574219 274.160156 133.683594 270.980469 135.273438 C 266.964844 137.277344 263.53125 140.023438 261.035156 143.21875 C 260.820312 143.492188 260.492188 143.65625 260.144531 143.65625 " fill-opacity="1" fill-rule="nonzero"/><path fill="#e9c261" d="M 310.984375 293.246094 C 317.5625 293.246094 323.921875 295.691406 329.941406 300.53125 C 329.503906 298.4375 328.960938 296.515625 328.308594 294.714844 C 325.578125 287.207031 320.460938 281.773438 314.273438 279.804688 C 312.421875 279.214844 310.355469 278.886719 308.363281 278.570312 C 304.480469 277.949219 300.460938 277.308594 297.429688 274.738281 C 293.414062 271.316406 292.648438 265.921875 291.90625 260.707031 C 291.738281 259.523438 291.5625 258.296875 291.355469 257.144531 C 289.644531 247.730469 284.242188 239.167969 276.511719 233.605469 C 271.707031 232.816406 266.121094 233.140625 258.992188 234.636719 C 255.597656 239.8125 251.644531 244.644531 247.21875 249.019531 C 249.5625 250.726562 251.765625 252.851562 253.648438 255.226562 C 254.949219 256.863281 256.132812 258.640625 257.164062 260.515625 C 260.917969 262.21875 264.003906 264.53125 266.335938 267.394531 C 269.242188 270.972656 271.039062 275.480469 272.78125 279.839844 C 275.476562 286.582031 278.023438 292.953125 284.269531 295.34375 C 289.015625 297.167969 294.367188 296.023438 300.042969 294.8125 C 303.460938 294.078125 306.996094 293.328125 310.453125 293.253906 C 310.628906 293.25 310.808594 293.246094 310.984375 293.246094 Z M 331.617188 304.605469 C 331.339844 304.605469 331.0625 304.503906 330.847656 304.300781 C 324.402344 298.328125 317.542969 295.34375 310.5 295.511719 C 307.257812 295.582031 303.832031 296.3125 300.511719 297.023438 C 294.769531 298.25 288.832031 299.519531 283.453125 297.453125 C 276.289062 294.710938 273.4375 287.578125 270.679688 280.675781 C 269 276.472656 267.265625 272.128906 264.574219 268.820312 C 262.382812 266.121094 259.558594 264.035156 255.941406 262.445312 C 255.695312 262.351562 255.484375 262.171875 255.351562 261.929688 C 254.34375 260.046875 253.171875 258.261719 251.871094 256.628906 C 249.835938 254.054688 247.398438 251.804688 244.820312 250.113281 C 244.535156 249.921875 244.347656 249.613281 244.316406 249.273438 C 244.285156 248.929688 244.414062 248.589844 244.660156 248.355469 C 249.476562 243.738281 253.742188 238.578125 257.347656 233.015625 C 257.511719 232.761719 257.765625 232.585938 258.0625 232.523438 C 265.824219 230.859375 271.894531 230.507812 277.152344 231.421875 C 277.320312 231.453125 277.476562 231.519531 277.613281 231.613281 C 285.933594 237.507812 291.753906 246.667969 293.582031 256.742188 C 293.800781 257.9375 293.976562 259.183594 294.148438 260.386719 C 294.828125 265.191406 295.535156 270.152344 298.898438 273.015625 C 301.445312 275.175781 304.976562 275.738281 308.71875 276.335938 C 310.796875 276.667969 312.949219 277.011719 314.960938 277.652344 C 321.820312 279.835938 327.460938 285.773438 330.433594 293.945312 C 331.453125 296.746094 332.207031 299.808594 332.738281 303.304688 C 332.808594 303.78125 332.570312 304.25 332.148438 304.472656 C 331.980469 304.5625 331.800781 304.605469 331.617188 304.605469 " fill-opacity="1" fill-rule="nonzero"/><path fill="#e9c261" d="M 190.386719 98.90625 C 197.585938 99.3125 204.679688 100.59375 211.488281 102.710938 C 211.816406 101.617188 212.203125 100.519531 212.648438 99.4375 C 213.910156 96.390625 215.554688 93.519531 217.546875 90.890625 C 217.84375 88.984375 218.375 87.148438 219.117188 85.421875 C 220.9375 81.191406 224.097656 77.5 227.152344 73.929688 C 231.878906 68.414062 236.339844 63.207031 235.5625 56.578125 C 234.96875 51.539062 231.472656 47.335938 227.765625 42.890625 C 225.523438 40.203125 223.207031 37.417969 221.535156 34.382812 C 218.269531 28.476562 217.394531 21.5625 218.925781 13.789062 C 217.273438 15.148438 215.820312 16.515625 214.53125 17.933594 C 209.144531 23.832031 206.703125 30.882812 207.832031 37.269531 C 208.167969 39.167969 208.835938 41.140625 209.480469 43.046875 C 210.738281 46.773438 212.039062 50.628906 211.167969 54.511719 C 210.003906 59.648438 205.578125 62.839844 201.296875 65.921875 C 200.328125 66.621094 199.324219 67.34375 198.398438 68.0625 C 191.171875 73.699219 186.15625 82.054688 184.597656 91.035156 C 186.039062 93.589844 187.941406 96.167969 190.386719 98.90625 Z M 212.269531 105.277344 C 212.148438 105.277344 212.03125 105.253906 211.917969 105.21875 C 204.804688 102.898438 197.363281 101.523438 189.800781 101.140625 C 189.5 101.121094 189.21875 100.988281 189.019531 100.769531 C 186.191406 97.648438 184.035156 94.710938 182.425781 91.785156 C 182.300781 91.5625 182.257812 91.3125 182.296875 91.0625 C 183.867188 81.375 189.226562 72.34375 197.007812 66.28125 C 197.964844 65.535156 198.984375 64.796875 199.972656 64.089844 C 203.914062 61.25 207.984375 58.316406 208.960938 54.015625 C 209.695312 50.753906 208.550781 47.359375 207.335938 43.769531 C 206.667969 41.785156 205.972656 39.730469 205.601562 37.660156 C 204.351562 30.578125 206.996094 22.832031 212.855469 16.40625 C 214.867188 14.210938 217.230469 12.125 220.085938 10.027344 C 220.472656 9.746094 221 9.738281 221.394531 10.007812 C 221.792969 10.277344 221.972656 10.769531 221.847656 11.234375 C 219.546875 19.710938 220.113281 27.132812 223.519531 33.296875 C 225.085938 36.140625 227.332031 38.835938 229.503906 41.445312 C 233.257812 45.949219 237.140625 50.609375 237.808594 56.316406 C 238.703125 63.921875 233.707031 69.757812 228.875 75.398438 C 225.929688 78.839844 222.882812 82.398438 221.199219 86.3125 C 220.496094 87.949219 220.003906 89.695312 219.742188 91.511719 C 219.710938 91.699219 219.632812 91.882812 219.515625 92.035156 C 217.570312 94.566406 215.960938 97.347656 214.738281 100.296875 C 214.179688 101.664062 213.71875 103.050781 213.363281 104.425781 C 213.289062 104.730469 213.085938 104.984375 212.8125 105.136719 C 212.644531 105.230469 212.457031 105.277344 212.269531 105.277344 " fill-opacity="1" fill-rule="nonzero"/><path fill="#e9c261" d="M 185.367188 101.027344 C 184.609375 101.027344 183.855469 101.03125 183.09375 101.054688 C 172.832031 101.324219 162.839844 103.386719 153.398438 107.183594 C 152.917969 107.375 152.441406 107.566406 151.960938 107.773438 C 142.738281 111.675781 134.320312 117.132812 126.949219 124 C 125.875 124.996094 124.765625 126.085938 123.558594 127.332031 C 118.386719 132.714844 113.945312 138.730469 110.359375 145.210938 C 108.925781 147.796875 107.605469 150.503906 106.429688 153.257812 C 104.453125 157.9375 102.898438 162.773438 101.808594 167.632812 C 100.828125 171.941406 100.183594 176.34375 99.902344 180.714844 C 99.761719 182.617188 99.691406 184.589844 99.691406 186.585938 C 99.691406 187.890625 99.71875 189.050781 99.773438 190.128906 C 99.976562 195.363281 100.671875 200.574219 101.828125 205.625 C 103.5 213.019531 106.171875 220.164062 109.769531 226.878906 C 110.289062 227.855469 110.835938 228.828125 111.398438 229.777344 C 111.398438 229.777344 111.402344 229.777344 111.402344 229.78125 C 116.351562 238.222656 122.660156 245.699219 130.164062 252.019531 C 131.46875 253.125 132.84375 254.210938 134.246094 255.253906 C 140.351562 259.796875 147.019531 263.496094 154.070312 266.257812 C 156.789062 267.324219 159.550781 268.246094 162.277344 269 C 169.753906 271.085938 177.519531 272.144531 185.367188 272.144531 L 185.542969 272.144531 C 187.140625 272.144531 188.699219 272.097656 190.175781 272.003906 C 197.632812 271.601562 204.976562 270.226562 212.019531 267.914062 C 215.253906 266.871094 218.480469 265.59375 221.617188 264.125 C 226.097656 262.042969 230.417969 259.546875 234.457031 256.710938 C 238.054688 254.203125 241.488281 251.394531 244.660156 248.355469 C 249.476562 243.738281 253.742188 238.578125 257.347656 233.015625 C 258.792969 230.792969 260.140625 228.476562 261.359375 226.132812 C 264.585938 219.972656 267.046875 213.417969 268.671875 206.648438 C 269.414062 203.597656 269.988281 200.449219 270.382812 197.285156 C 270.824219 193.773438 271.046875 190.171875 271.046875 186.585938 C 271.046875 184.480469 270.96875 182.402344 270.8125 180.40625 C 270.546875 176.585938 270.019531 172.777344 269.242188 169.066406 C 268.203125 164.03125 266.6875 159.0625 264.734375 154.296875 C 263.160156 150.441406 261.289062 146.675781 259.171875 143.101562 C 255.074219 136.175781 250.015625 129.855469 244.125 124.3125 C 243.203125 123.445312 242.230469 122.5625 241.226562 121.703125 C 234.894531 116.261719 227.828125 111.789062 220.226562 108.402344 C 217.484375 107.183594 214.6875 106.113281 211.921875 105.21875 C 204.804688 102.898438 197.363281 101.523438 189.800781 101.140625 C 188.339844 101.066406 186.851562 101.027344 185.367188 101.027344 Z M 185.542969 274.40625 L 185.367188 274.40625 C 177.316406 274.40625 169.34375 273.320312 161.671875 271.175781 C 158.871094 270.402344 156.035156 269.457031 153.246094 268.363281 C 146.007812 265.527344 139.160156 261.730469 132.890625 257.066406 C 131.449219 255.996094 130.042969 254.878906 128.703125 253.746094 C 121.007812 247.261719 114.527344 239.585938 109.453125 230.929688 C 108.871094 229.953125 108.304688 228.945312 107.773438 227.941406 C 104.078125 221.054688 101.335938 213.710938 99.621094 206.125 C 98.433594 200.941406 97.722656 195.59375 97.511719 190.230469 C 97.457031 189.125 97.429688 187.929688 97.429688 186.585938 C 97.429688 184.535156 97.5 182.507812 97.640625 180.558594 C 97.933594 176.078125 98.59375 171.558594 99.597656 167.132812 C 100.71875 162.148438 102.316406 157.183594 104.34375 152.378906 C 105.550781 149.546875 106.910156 146.769531 108.378906 144.117188 C 112.058594 137.46875 116.617188 131.292969 121.925781 125.765625 C 123.167969 124.484375 124.300781 123.367188 125.40625 122.347656 C 132.972656 115.296875 141.609375 109.699219 151.074219 105.695312 C 151.566406 105.484375 152.058594 105.285156 152.558594 105.085938 C 162.246094 101.1875 172.5 99.074219 183.03125 98.796875 C 185.320312 98.730469 187.652344 98.765625 189.914062 98.882812 C 197.679688 99.277344 205.316406 100.6875 212.617188 103.070312 C 215.457031 103.988281 218.328125 105.085938 221.144531 106.335938 C 228.953125 109.8125 236.203125 114.40625 242.703125 119.988281 C 243.734375 120.878906 244.734375 121.777344 245.675781 122.667969 C 251.71875 128.359375 256.917969 134.847656 261.121094 141.949219 C 263.292969 145.617188 265.214844 149.488281 266.828125 153.441406 C 268.832031 158.335938 270.390625 163.4375 271.460938 168.609375 C 272.257812 172.414062 272.800781 176.328125 273.070312 180.242188 C 273.230469 182.289062 273.308594 184.425781 273.308594 186.585938 C 273.308594 190.265625 273.078125 193.960938 272.628906 197.566406 C 272.226562 200.8125 271.632812 204.046875 270.871094 207.175781 C 269.203125 214.128906 266.675781 220.855469 263.363281 227.175781 C 262.117188 229.585938 260.726562 231.960938 259.25 234.242188 C 255.550781 239.953125 251.167969 245.246094 246.226562 249.984375 C 242.972656 253.105469 239.445312 255.992188 235.757812 258.5625 C 231.613281 261.472656 227.175781 264.03125 222.574219 266.171875 C 219.359375 267.679688 216.046875 268.992188 212.722656 270.0625 C 205.492188 272.4375 197.949219 273.847656 190.308594 274.261719 C 188.792969 274.355469 187.1875 274.40625 185.542969 274.40625 " fill-opacity="1" fill-rule="nonzero"/><path fill="#e9c261" d="M 74.820312 170.921875 C 75.714844 171.261719 76.550781 171.519531 77.367188 171.714844 C 83.898438 173.324219 91.007812 171.714844 99.707031 166.65625 C 100.734375 162.203125 102.144531 157.769531 103.898438 153.457031 C 101.65625 152.550781 99.484375 151.367188 97.421875 149.929688 C 95.386719 148.515625 93.46875 146.882812 91.726562 145.066406 C 89.929688 144.453125 88.21875 143.625 86.636719 142.597656 C 82.765625 140.085938 79.667969 136.347656 76.667969 132.734375 C 72.03125 127.144531 67.648438 121.863281 60.976562 121.5 C 55.898438 121.21875 51.152344 123.953125 46.125 126.84375 C 43.097656 128.585938 39.964844 130.386719 36.695312 131.519531 C 30.304688 133.71875 23.324219 133.398438 15.921875 130.5625 C 16.988281 132.433594 18.089844 134.097656 19.261719 135.601562 C 24.15625 141.886719 30.667969 145.484375 37.128906 145.484375 C 37.152344 145.484375 37.175781 145.484375 37.199219 145.484375 C 39.136719 145.476562 41.195312 145.160156 43.191406 144.851562 C 47.082031 144.25 51.109375 143.625 54.785156 145.152344 C 59.648438 147.167969 62.03125 152.054688 64.339844 156.78125 C 64.871094 157.863281 65.414062 158.984375 65.972656 160.023438 C 68.210938 164.199219 71.1875 167.863281 74.820312 170.921875 Z M 82.351562 174.578125 C 80.464844 174.578125 78.632812 174.355469 76.828125 173.910156 C 75.871094 173.679688 74.886719 173.371094 73.835938 172.964844 C 73.71875 172.921875 73.613281 172.859375 73.515625 172.777344 C 69.589844 169.507812 66.382812 165.574219 63.980469 161.09375 C 63.398438 160.011719 62.84375 158.871094 62.304688 157.769531 C 60.183594 153.421875 57.988281 148.925781 53.914062 147.238281 C 50.824219 145.957031 47.285156 146.503906 43.539062 147.082031 C 41.460938 147.40625 39.316406 147.738281 37.207031 147.746094 C 37.179688 147.746094 37.152344 147.746094 37.128906 147.746094 C 29.964844 147.746094 22.804688 143.828125 17.472656 136.988281 C 15.65625 134.65625 14.003906 131.972656 12.40625 128.777344 C 12.191406 128.347656 12.273438 127.828125 12.609375 127.484375 C 12.945312 127.140625 13.460938 127.046875 13.894531 127.25 C 21.867188 130.960938 29.289062 131.679688 35.957031 129.382812 C 39.023438 128.324219 42.058594 126.578125 44.996094 124.886719 C 50.085938 121.957031 55.339844 118.921875 61.101562 119.246094 C 68.761719 119.664062 73.664062 125.574219 78.410156 131.292969 C 81.300781 134.773438 84.289062 138.378906 87.871094 140.703125 C 89.367188 141.675781 90.992188 142.449219 92.703125 143.011719 C 92.882812 143.070312 93.046875 143.171875 93.175781 143.308594 C 94.863281 145.09375 96.726562 146.695312 98.71875 148.074219 C 100.953125 149.636719 103.324219 150.875 105.769531 151.753906 C 106.0625 151.855469 106.296875 152.078125 106.421875 152.363281 C 106.550781 152.644531 106.550781 152.96875 106.429688 153.253906 C 104.453125 157.9375 102.898438 162.773438 101.808594 167.632812 C 101.738281 167.933594 101.550781 168.195312 101.277344 168.355469 C 94.191406 172.539062 88.042969 174.578125 82.351562 174.578125 " fill-opacity="1" fill-rule="nonzero"/><g clip-path="url(#id2)"><path fill="#e9c261" d="M 152.542969 11.90625 C 151.503906 13.777344 150.652344 15.582031 149.96875 17.371094 C 147.113281 24.828125 147.421875 32.28125 150.8125 37.816406 C 151.824219 39.460938 153.164062 41.054688 154.460938 42.59375 C 157 45.605469 159.621094 48.71875 160.222656 52.652344 C 161.023438 57.859375 158.066406 62.445312 155.203125 66.882812 C 154.558594 67.886719 153.890625 68.921875 153.292969 69.925781 C 147.644531 79.476562 146.546875 91.308594 150.351562 101.578125 C 150.546875 102.09375 150.757812 102.617188 150.980469 103.132812 C 151.304688 103.882812 151.648438 104.609375 152.015625 105.300781 C 152.195312 105.230469 152.375 105.15625 152.558594 105.085938 C 162.246094 101.1875 172.5 99.074219 183.03125 98.796875 C 184.445312 98.753906 185.871094 98.753906 187.292969 98.789062 C 185.292969 96.390625 183.6875 94.082031 182.425781 91.785156 C 179.933594 87.289062 178.792969 82.949219 178.9375 78.519531 C 179.078125 73.921875 180.671875 69.335938 182.210938 64.902344 C 184.589844 58.035156 186.839844 51.554688 183.6875 45.664062 C 181.289062 41.191406 176.488281 38.554688 171.410156 35.765625 C 168.34375 34.082031 165.179688 32.339844 162.515625 30.136719 C 157.308594 25.820312 153.964844 19.699219 152.542969 11.90625 Z M 151.515625 107.867188 C 151.121094 107.867188 150.738281 107.660156 150.535156 107.296875 C 149.945312 106.273438 149.394531 105.171875 148.90625 104.035156 C 148.667969 103.488281 148.441406 102.925781 148.230469 102.367188 C 144.1875 91.460938 145.355469 78.90625 151.347656 68.777344 C 151.964844 67.730469 152.644531 66.679688 153.300781 65.660156 C 155.933594 61.578125 158.65625 57.355469 157.984375 52.992188 C 157.476562 49.6875 155.171875 46.949219 152.726562 44.046875 C 151.378906 42.445312 149.980469 40.785156 148.882812 38.996094 C 145.125 32.855469 144.75 24.683594 147.855469 16.5625 C 148.914062 13.785156 150.355469 10.980469 152.25 7.984375 C 152.503906 7.582031 152.992188 7.378906 153.460938 7.488281 C 153.929688 7.597656 154.277344 7.988281 154.328125 8.464844 C 155.292969 17.191406 158.53125 23.898438 163.957031 28.398438 C 166.457031 30.464844 169.53125 32.152344 172.5 33.785156 C 177.648438 36.613281 182.964844 39.535156 185.679688 44.601562 C 189.300781 51.359375 186.78125 58.617188 184.347656 65.640625 C 182.863281 69.914062 181.332031 74.335938 181.195312 78.589844 C 181.070312 82.605469 182.117188 86.5625 184.40625 90.695312 C 185.929688 93.464844 187.992188 96.261719 190.695312 99.253906 C 191.003906 99.589844 191.074219 100.078125 190.878906 100.496094 C 190.683594 100.90625 190.253906 101.164062 189.800781 101.140625 C 187.597656 101.027344 185.335938 100.988281 183.09375 101.054688 C 172.832031 101.324219 162.839844 103.386719 153.398438 107.183594 C 152.917969 107.375 152.441406 107.566406 151.960938 107.773438 C 151.816406 107.835938 151.664062 107.867188 151.515625 107.867188 " fill-opacity="1" fill-rule="nonzero"/></g><g clip-path="url(#id3)"><path fill="#e9c261" d="M 98.769531 180.640625 L 98.777344 180.640625 Z M 46.949219 186.800781 C 47.167969 186.800781 47.382812 186.808594 47.601562 186.820312 C 52.867188 187.117188 56.738281 190.953125 60.484375 194.660156 C 61.335938 195.503906 62.21875 196.378906 63.085938 197.171875 C 68.316406 201.972656 74.789062 205.171875 81.800781 206.421875 C 85.6875 207.117188 89.613281 207.1875 93.476562 206.621094 C 95.515625 206.324219 97.503906 205.835938 99.40625 205.160156 C 98.347656 200.277344 97.710938 195.257812 97.511719 190.230469 C 97.457031 189.125 97.429688 187.929688 97.429688 186.585938 C 97.429688 184.535156 97.5 182.511719 97.640625 180.5625 C 97.878906 176.90625 98.359375 173.230469 99.074219 169.601562 C 90.621094 174.183594 83.5 175.550781 76.828125 173.910156 C 75.871094 173.679688 74.886719 173.371094 73.835938 172.964844 C 70.480469 171.691406 67.269531 169.753906 64.160156 167.886719 C 57.9375 164.136719 52.050781 160.59375 45.632812 162.449219 C 40.75 163.859375 37.175781 168 33.386719 172.382812 C 31.105469 175.03125 28.742188 177.761719 26.023438 179.910156 C 20.714844 184.09375 14.023438 186.085938 6.097656 185.859375 C 7.726562 187.277344 9.316406 188.484375 10.914062 189.507812 C 17.632812 193.847656 24.996094 195.09375 31.117188 192.933594 C 32.941406 192.289062 34.777344 191.308594 36.558594 190.359375 C 39.84375 188.609375 43.234375 186.800781 46.949219 186.800781 Z M 88.257812 209.261719 C 85.972656 209.261719 83.679688 209.054688 81.402344 208.648438 C 73.964844 207.320312 67.101562 203.929688 61.558594 198.835938 C 60.65625 198.015625 59.761719 197.121094 58.890625 196.261719 C 55.445312 192.851562 51.882812 189.328125 47.472656 189.078125 C 44.140625 188.882812 40.96875 190.570312 37.625 192.351562 C 35.773438 193.339844 33.855469 194.363281 31.871094 195.0625 C 25.082031 197.460938 16.996094 196.128906 9.6875 191.40625 C 7.214844 189.820312 4.757812 187.828125 2.1875 185.332031 C 1.84375 184.996094 1.75 184.480469 1.953125 184.042969 C 2.15625 183.609375 2.617188 183.355469 3.089844 183.398438 C 11.839844 184.273438 19.082031 182.503906 24.621094 178.136719 C 27.167969 176.125 29.460938 173.472656 31.675781 170.90625 C 35.507812 166.464844 39.476562 161.875 45.007812 160.277344 C 52.371094 158.152344 58.960938 162.113281 65.328125 165.949219 C 68.347656 167.765625 71.476562 169.648438 74.644531 170.855469 C 75.605469 171.226562 76.496094 171.507812 77.367188 171.714844 C 84.003906 173.347656 91.234375 171.660156 100.125 166.410156 C 100.515625 166.179688 101.003906 166.203125 101.367188 166.472656 C 101.734375 166.738281 101.90625 167.195312 101.804688 167.636719 C 100.828125 171.941406 100.183594 176.34375 99.902344 180.714844 C 99.898438 180.71875 99.898438 180.71875 99.898438 180.722656 C 99.761719 182.617188 99.691406 184.589844 99.691406 186.585938 C 99.691406 187.890625 99.71875 189.050781 99.773438 190.128906 C 99.976562 195.363281 100.671875 200.574219 101.828125 205.625 C 101.953125 206.171875 101.65625 206.726562 101.136719 206.929688 C 98.800781 207.839844 96.332031 208.488281 93.804688 208.855469 C 91.964844 209.125 90.117188 209.261719 88.257812 209.261719 " fill-opacity="1" fill-rule="nonzero"/></g><g clip-path="url(#id4)"><path fill="#e9c261" d="M 291.207031 198.53125 C 293.5625 198.53125 295.855469 198.871094 298.042969 199.539062 C 302.453125 200.898438 306.460938 203.644531 310.339844 206.296875 C 316.335938 210.402344 322.003906 214.285156 328.515625 212.804688 C 333.472656 211.679688 337.285156 207.753906 341.320312 203.601562 C 343.757812 201.089844 346.277344 198.496094 349.109375 196.515625 C 354.652344 192.648438 361.453125 191.042969 369.355469 191.730469 C 367.8125 190.222656 366.292969 188.925781 364.761719 187.804688 C 358.304688 183.085938 351.027344 181.410156 344.792969 183.210938 C 342.933594 183.75 341.035156 184.625 339.203125 185.46875 C 335.625 187.113281 331.933594 188.816406 327.980469 188.363281 C 322.742188 187.757812 319.097656 183.703125 315.574219 179.789062 C 314.773438 178.894531 313.941406 177.972656 313.125 177.128906 C 306.757812 170.554688 297.917969 166.464844 288.832031 165.871094 C 282.320312 169.246094 277.03125 175.480469 273.101562 180.660156 C 273.238281 182.582031 273.308594 184.574219 273.308594 186.585938 C 273.308594 189.761719 273.140625 192.945312 272.804688 196.078125 C 276.410156 195.605469 280.28125 195.820312 284.09375 196.710938 C 286.058594 197.160156 288.015625 197.789062 289.921875 198.5625 C 290.351562 198.542969 290.78125 198.53125 291.207031 198.53125 Z M 325.679688 215.382812 C 319.609375 215.386719 314.257812 211.722656 309.0625 208.164062 C 305.320312 205.601562 301.457031 202.957031 297.378906 201.699219 C 294.976562 200.964844 292.421875 200.671875 289.800781 200.835938 C 289.628906 200.84375 289.457031 200.816406 289.296875 200.75 C 287.425781 199.972656 285.503906 199.355469 283.585938 198.910156 C 279.535156 197.96875 275.429688 197.839844 271.714844 198.539062 C 271.359375 198.597656 270.992188 198.496094 270.730469 198.25 C 270.464844 198.003906 270.339844 197.644531 270.382812 197.285156 C 270.824219 193.773438 271.046875 190.171875 271.046875 186.585938 C 271.046875 184.480469 270.96875 182.402344 270.8125 180.40625 C 270.792969 180.128906 270.871094 179.859375 271.039062 179.636719 C 275.195312 174.128906 280.886719 167.335938 288.082031 163.714844 C 288.257812 163.628906 288.457031 163.585938 288.65625 163.597656 C 298.410156 164.148438 307.921875 168.503906 314.75 175.554688 C 315.597656 176.429688 316.441406 177.367188 317.257812 178.277344 C 320.5 181.882812 323.851562 185.609375 328.242188 186.117188 C 331.550781 186.496094 334.808594 185 338.253906 183.414062 C 340.164062 182.535156 342.140625 181.628906 344.164062 181.042969 C 351.078125 179.042969 359.070312 180.847656 366.09375 185.980469 C 368.472656 187.71875 370.804688 189.84375 373.226562 192.480469 C 373.550781 192.835938 373.613281 193.355469 373.386719 193.78125 C 373.160156 194.203125 372.691406 194.4375 372.210938 194.363281 C 363.527344 192.980469 356.1875 194.332031 350.40625 198.367188 C 347.75 200.222656 345.308594 202.738281 342.945312 205.171875 C 338.855469 209.382812 334.632812 213.734375 329.019531 215.011719 C 327.878906 215.265625 326.765625 215.382812 325.679688 215.382812 " fill-opacity="1" fill-rule="nonzero"/></g><path fill="#e9c261" d="M 44.625 302.503906 C 46.789062 302.617188 48.785156 302.59375 50.671875 302.425781 C 58.636719 301.722656 65.214844 298.183594 68.714844 292.71875 C 69.761719 291.085938 70.609375 289.183594 71.429688 287.339844 C 73.027344 283.75 74.679688 280.039062 77.949219 277.777344 C 82.285156 274.78125 87.691406 275.425781 92.917969 276.050781 C 94.117188 276.191406 95.359375 276.34375 96.535156 276.4375 C 106.609375 277.261719 116.6875 273.921875 124.195312 267.285156 C 124.910156 266.65625 125.609375 265.984375 126.332031 265.230469 C 128.847656 262.613281 130.859375 259.625 132.191406 256.539062 C 130.996094 255.632812 129.824219 254.695312 128.703125 253.746094 C 121.003906 247.261719 114.527344 239.582031 109.449219 230.921875 C 109.289062 230.65625 109.128906 230.386719 108.972656 230.109375 C 108.347656 231.722656 107.703125 233.210938 107.027344 234.617188 C 103.382812 242.160156 98.8125 247.082031 93.066406 249.660156 C 88.859375 251.539062 84.035156 252.117188 79.371094 252.675781 C 72.148438 253.539062 65.324219 254.359375 61.398438 259.769531 C 58.417969 263.878906 58.144531 269.328125 57.855469 275.101562 C 57.683594 278.597656 57.503906 282.210938 56.679688 285.574219 C 55.070312 292.136719 51.015625 297.820312 44.625 302.503906 Z M 47.1875 304.835938 C 45.320312 304.835938 43.339844 304.71875 41.21875 304.492188 C 40.738281 304.441406 40.34375 304.09375 40.234375 303.625 C 40.125 303.15625 40.328125 302.667969 40.734375 302.414062 C 48.175781 297.730469 52.800781 291.882812 54.480469 285.039062 C 55.253906 281.882812 55.429688 278.382812 55.597656 274.992188 C 55.886719 269.140625 56.1875 263.09375 59.566406 258.441406 C 64.070312 252.234375 71.710938 251.316406 79.097656 250.433594 C 83.59375 249.894531 88.246094 249.335938 92.136719 247.597656 C 97.382812 245.246094 101.585938 240.679688 104.988281 233.636719 C 105.9375 231.652344 106.832031 229.492188 107.707031 227.035156 C 107.859375 226.613281 108.242188 226.316406 108.691406 226.285156 C 109.140625 226.25 109.5625 226.488281 109.773438 226.886719 C 110.289062 227.855469 110.835938 228.828125 111.398438 229.777344 C 116.351562 238.222656 122.660156 245.699219 130.164062 252.019531 C 131.46875 253.125 132.84375 254.210938 134.246094 255.253906 C 134.652344 255.554688 134.808594 256.097656 134.621094 256.570312 C 133.199219 260.210938 130.898438 263.746094 127.964844 266.796875 C 127.195312 267.597656 126.453125 268.308594 125.695312 268.976562 C 117.730469 276.019531 107.039062 279.558594 96.355469 278.6875 C 95.132812 278.589844 93.871094 278.441406 92.652344 278.292969 C 87.839844 277.722656 82.867188 277.128906 79.238281 279.632812 C 76.492188 281.535156 75.035156 284.800781 73.496094 288.257812 C 72.644531 290.179688 71.757812 292.160156 70.621094 293.933594 C 66.742188 299.996094 59.542969 303.910156 50.875 304.675781 C 49.6875 304.78125 48.460938 304.835938 47.1875 304.835938 " fill-opacity="1" fill-rule="nonzero"/></svg>